<svg xmlns="http://www.w3.org/2000/svg" viewBox="0 0 50.38 42.53"><defs><style>.cls-1{fill:#fff;fill-rule:evenodd;}.cls-2{fill:none;stroke:#fff;stroke-width:3px;}</style></defs><title>Ресурс 5</title><g id="Слой_2" data-name="Слой 2"><g id="Layer_1" data-name="Layer 1"><path class="cls-1" d="M35.91,11.79a1.13,1.13,0,0,0-1.25-1.12L21.12,12.12a1.13,1.13,0,0,0-1,1.12V21c0,.87-1,1.45-1.86,1.37l-.4,0A4.52,4.52,0,1,0,22,25.14a1.22,1.22,0,0,1-.11-.56l.35-9.12a1.13,1.13,0,0,1,1.09-1.09l9.14-.32a1.13,1.13,0,0,1,1.17,1.13v4a1.08,1.08,0,0,1-1.12,1A4.51,4.51,0,1,0,36.18,22a1.33,1.33,0,0,1-.27-.76V11.79Z"/><rect class="cls-2" x="1.5" y="1.5" width="47.38" height="39.53" rx="8.47"/></g></g></svg>