<svg xmlns="http://www.w3.org/2000/svg" xmlns:xlink="http://www.w3.org/1999/xlink" viewBox="0 0 490.63 141.87"><defs><style>.cls-1{fill:url(#linear-gradient);}.cls-2{fill:url(#linear-gradient-2);}.cls-3{fill:url(#linear-gradient-3);}.cls-4{fill:url(#linear-gradient-4);}.cls-5{fill:url(#linear-gradient-5);}.cls-6{fill:url(#linear-gradient-6);}.cls-7{fill:url(#linear-gradient-7);}.cls-8{fill:url(#linear-gradient-8);}.cls-9{fill:url(#linear-gradient-9);}.cls-10{fill:url(#linear-gradient-10);}</style><linearGradient id="linear-gradient" x1="54.67" y1="27.43" x2="28.45" y2="65.47" gradientUnits="userSpaceOnUse"><stop offset="0" stop-color="#727476"/><stop offset="0.49" stop-color="#fcfcfc"/><stop offset="0.68" stop-color="#fff"/><stop offset="0.75" stop-color="#fff"/><stop offset="0.89" stop-color="#c8caca"/><stop offset="1" stop-color="#9d9fa0"/></linearGradient><linearGradient id="linear-gradient-2" x1="-21.63" y1="122.7" x2="98.57" y2="2.5" xlink:href="#linear-gradient"/><linearGradient id="linear-gradient-3" x1="57.43" y1="133.85" x2="180.01" y2="11.26" gradientUnits="userSpaceOnUse"><stop offset="0" stop-color="#727476"/><stop offset="0.49" stop-color="#fcfcfc"/><stop offset="0.68" stop-color="#fff"/><stop offset="0.75" stop-color="#fff"/></linearGradient><linearGradient id="linear-gradient-4" x1="74.47" y1="138.31" x2="172.4" y2="40.38" gradientUnits="userSpaceOnUse"><stop offset="0" stop-color="#9d9fa0"/><stop offset="0.11" stop-color="#c8caca"/><stop offset="0.25" stop-color="#fff"/><stop offset="0.32" stop-color="#fff"/><stop offset="0.51" stop-color="#fcfcfc"/><stop offset="1" stop-color="#727476"/></linearGradient><linearGradient id="linear-gradient-5" x1="192.5" y1="133.85" x2="315.09" y2="11.26" xlink:href="#linear-gradient-3"/><linearGradient id="linear-gradient-6" x1="209.54" y1="138.31" x2="307.47" y2="40.38" xlink:href="#linear-gradient-4"/><linearGradient id="linear-gradient-7" x1="290.4" y1="133.85" x2="412.99" y2="11.26" xlink:href="#linear-gradient-3"/><linearGradient id="linear-gradient-8" x1="307.44" y1="138.31" x2="405.38" y2="40.38" xlink:href="#linear-gradient-4"/><linearGradient id="linear-gradient-9" x1="388.31" y1="133.85" x2="510.9" y2="11.26" xlink:href="#linear-gradient-3"/><linearGradient id="linear-gradient-10" x1="405.35" y1="138.31" x2="503.29" y2="40.38" xlink:href="#linear-gradient-4"/></defs><title>Ресурс 9</title><g id="Слой_2" data-name="Слой 2"><g id="Layer_1" data-name="Layer 1"><path class="cls-1" d="M35.91,0H20.19L0,13.47V34L20.19,21.65V141.87h19.9V4.17A4.16,4.16,0,0,0,35.91,0Z"/><path class="cls-2" d="M40.09,4.15V141.87H20.19V0H35.94A4.15,4.15,0,0,1,40.09,4.15Z"/><path class="cls-3" d="M149.84,10.58Q139.91.15,120.36.18T90.88,10.62Q81,21.09,80.93,39.4v63.06c0,11.7,3,21,9.22,28a4.92,4.92,0,0,0,.61.73q9.81,10.54,29.6,10.52c13,0,22.78-3.45,29.44-10.44s9.95-16.56,9.95-28.79V39.4Q159.75,21,149.84,10.58Zm-9.58,94.64c-.37,5.16-1.91,9.34-4.59,12.51a15.24,15.24,0,0,1-9.1,5,29,29,0,0,1-6.21.61q-10.67,0-15.35-5.56c-3.12-3.69-4.71-8.81-4.71-15.27V39.4c0-6.53,1.59-11.61,4.71-15.3s8.24-5.49,15.35-5.49c1.1,0,2.15.05,3.13.13h0a1.11,1.11,0,0,1,.36,0c.53,0,1.1.12,1.63.2a19,19,0,0,1,6.82,2.36,11.42,11.42,0,0,1,3,2.51,1.49,1.49,0,0,1,.29.25c3.17,3.69,4.71,8.77,4.71,15.3v63.06c0,.82,0,1.59-.08,2.36A.66.66,0,0,1,140.26,105.22Z"/><path class="cls-4" d="M159.75,69.13v33.33c0,12.23-3.29,21.85-9.95,28.79s-16.49,10.44-29.44,10.44q-19.8,0-29.6-10.52a4.92,4.92,0,0,1-.61-.73c9-.12,24.85-1.38,36.42-7.76a15.24,15.24,0,0,0,9.1-5c2.68-3.17,4.22-7.35,4.59-12.51a.66.66,0,0,0,0-.4,22.87,22.87,0,0,0,.4-4.47c0-4.22-.12-8.44-.32-12.59V39.4c0-6.53-1.54-11.61-4.71-15.3a1.49,1.49,0,0,0-.29-.25,11.42,11.42,0,0,0-3-2.51A19,19,0,0,0,125.52,19C143.42,21.34,154.67,29.74,159.75,69.13Z"/><path class="cls-5" d="M284.91,10.58Q275,.15,255.43.18T226,10.62Q216,21.09,216,39.4v63.06c0,11.7,3.05,21,9.22,28a4.92,4.92,0,0,0,.61.73q9.81,10.54,29.6,10.52c12.95,0,22.78-3.45,29.44-10.44s9.95-16.56,9.95-28.79V39.4Q294.82,21,284.91,10.58Zm-9.58,94.64c-.37,5.16-1.91,9.34-4.59,12.51a15.24,15.24,0,0,1-9.1,5,28.92,28.92,0,0,1-6.21.61q-10.65,0-15.35-5.56c-3.12-3.69-4.71-8.81-4.71-15.27V39.4c0-6.53,1.59-11.61,4.71-15.3s8.25-5.49,15.35-5.49c1.1,0,2.15.05,3.13.13h0a1.11,1.11,0,0,1,.36,0c.53,0,1.1.12,1.63.2a19,19,0,0,1,6.82,2.36,11.63,11.63,0,0,1,3,2.51,1.76,1.76,0,0,1,.28.25c3.17,3.69,4.71,8.77,4.71,15.3v63.06c0,.82,0,1.59-.08,2.36A.66.66,0,0,1,275.33,105.22Z"/><path class="cls-6" d="M294.82,69.13v33.33c0,12.23-3.29,21.85-9.95,28.79s-16.49,10.44-29.44,10.44q-19.78,0-29.6-10.52a4.92,4.92,0,0,1-.61-.73c9-.12,24.85-1.38,36.42-7.76a15.24,15.24,0,0,0,9.1-5c2.68-3.17,4.22-7.35,4.59-12.51a.66.66,0,0,0,0-.4,22.87,22.87,0,0,0,.4-4.47c0-4.22-.12-8.44-.32-12.59V39.4c0-6.53-1.54-11.61-4.71-15.3a1.76,1.76,0,0,0-.28-.25,11.63,11.63,0,0,0-3-2.51A19,19,0,0,0,260.59,19C278.49,21.34,289.74,29.74,294.82,69.13Z"/><path class="cls-7" d="M382.82,10.58Q372.89.15,353.34.18T323.86,10.62q-9.93,10.47-9.95,28.78v63.06c0,11.7,3,21,9.22,28a4.37,4.37,0,0,0,.61.73q9.79,10.54,29.6,10.52c13,0,22.78-3.45,29.44-10.44s9.94-16.56,9.94-28.79V39.4Q392.72,21,382.82,10.58Zm-9.59,94.64c-.36,5.16-1.9,9.34-4.58,12.51a15.27,15.27,0,0,1-9.1,5,29.06,29.06,0,0,1-6.21.61q-10.66,0-15.35-5.56c-3.13-3.69-4.71-8.81-4.71-15.27V39.4c0-6.53,1.58-11.61,4.71-15.3s8.24-5.49,15.35-5.49c1.09,0,2.15.05,3.12.13h.05a1.11,1.11,0,0,1,.36,0c.53,0,1.1.12,1.62.2a19.1,19.1,0,0,1,6.83,2.36,11.58,11.58,0,0,1,3,2.51,2.49,2.49,0,0,1,.29.25c3.16,3.69,4.71,8.77,4.71,15.3v63.06c0,.82,0,1.59-.09,2.36A.59.59,0,0,1,373.23,105.22Z"/><path class="cls-8" d="M392.72,69.13v33.33c0,12.23-3.28,21.85-9.94,28.79s-16.49,10.44-29.44,10.44q-19.8,0-29.6-10.52a4.37,4.37,0,0,1-.61-.73c9-.12,24.85-1.38,36.42-7.76a15.27,15.27,0,0,0,9.1-5c2.68-3.17,4.22-7.35,4.58-12.51a.59.59,0,0,0,0-.4,22.11,22.11,0,0,0,.41-4.47c0-4.22-.12-8.44-.32-12.59V39.4c0-6.53-1.55-11.61-4.71-15.3a2.49,2.49,0,0,0-.29-.25,11.58,11.58,0,0,0-3-2.51A19.1,19.1,0,0,0,358.49,19C376.4,21.34,387.65,29.74,392.72,69.13Z"/><path class="cls-9" d="M480.72,10.58Q470.79.15,451.24.18T421.77,10.62q-9.93,10.47-9.95,28.78v63.06c0,11.7,3,21,9.21,28a5.62,5.62,0,0,0,.61.73q9.81,10.54,29.6,10.52c13,0,22.78-3.45,29.44-10.44s9.95-16.56,9.95-28.79V39.4Q490.63,21,480.72,10.58Zm-9.58,94.64c-.36,5.16-1.91,9.34-4.59,12.51a15.21,15.21,0,0,1-9.09,5,29.09,29.09,0,0,1-6.22.61q-10.65,0-15.34-5.56c-3.13-3.69-4.71-8.81-4.71-15.27V39.4c0-6.53,1.58-11.61,4.71-15.3s8.24-5.49,15.34-5.49c1.1,0,2.16.05,3.13.13h0a1.17,1.17,0,0,1,.37,0c.53,0,1.09.12,1.62.2a19,19,0,0,1,6.82,2.36,11.47,11.47,0,0,1,3,2.51,1.76,1.76,0,0,1,.28.25c3.17,3.69,4.71,8.77,4.71,15.3v63.06c0,.82,0,1.59-.08,2.36A.66.66,0,0,1,471.14,105.22Z"/><path class="cls-10" d="M490.63,69.13v33.33c0,12.23-3.29,21.85-9.95,28.79s-16.48,10.44-29.44,10.44q-19.78,0-29.6-10.52a5.62,5.62,0,0,1-.61-.73c9-.12,24.85-1.38,36.43-7.76a15.21,15.21,0,0,0,9.09-5c2.68-3.17,4.23-7.35,4.59-12.51a.66.66,0,0,0,0-.4,22.11,22.11,0,0,0,.41-4.47c0-4.22-.12-8.44-.33-12.59V39.4c0-6.53-1.54-11.61-4.71-15.3a1.76,1.76,0,0,0-.28-.25,11.47,11.47,0,0,0-3-2.51A19,19,0,0,0,456.4,19C474.31,21.34,485.55,29.74,490.63,69.13Z"/></g></g></svg>