<svg xmlns="http://www.w3.org/2000/svg" xmlns:xlink="http://www.w3.org/1999/xlink" viewBox="0 0 508.19 141.75"><defs><style>.cls-1{fill:url(#linear-gradient);}.cls-2{fill:url(#linear-gradient-2);}.cls-3{fill:url(#linear-gradient-3);}.cls-4{fill:url(#linear-gradient-4);}.cls-5{fill:url(#linear-gradient-5);}.cls-6{fill:url(#linear-gradient-6);}.cls-7{fill:url(#linear-gradient-7);}.cls-8{fill:url(#linear-gradient-8);}.cls-9{fill:url(#linear-gradient-9);}.cls-10{fill:url(#linear-gradient-10);}.cls-11{fill:url(#linear-gradient-11);}</style><linearGradient id="linear-gradient" x1="-18.11" y1="140.9" x2="117.92" y2="4.87" gradientUnits="userSpaceOnUse"><stop offset="0" stop-color="#727476"/><stop offset="0.49" stop-color="#fcfcfc"/><stop offset="0.68" stop-color="#fff"/><stop offset="0.75" stop-color="#fff"/><stop offset="0.89" stop-color="#c8caca"/><stop offset="1" stop-color="#9d9fa0"/></linearGradient><linearGradient id="linear-gradient-2" x1="14.29" y1="132.42" x2="113.37" y2="132.42" xlink:href="#linear-gradient"/><linearGradient id="linear-gradient-3" x1="42.64" y1="10.04" x2="-41.42" y2="112.89" xlink:href="#linear-gradient"/><linearGradient id="linear-gradient-4" x1="74.25" y1="133.9" x2="197.04" y2="11.1" gradientUnits="userSpaceOnUse"><stop offset="0" stop-color="#727476"/><stop offset="0.49" stop-color="#fcfcfc"/><stop offset="0.68" stop-color="#fff"/><stop offset="0.75" stop-color="#fff"/></linearGradient><linearGradient id="linear-gradient-5" x1="91.31" y1="138.37" x2="189.42" y2="40.27" gradientUnits="userSpaceOnUse"><stop offset="0" stop-color="#9d9fa0"/><stop offset="0.11" stop-color="#c8caca"/><stop offset="0.25" stop-color="#fff"/><stop offset="0.32" stop-color="#fff"/><stop offset="0.51" stop-color="#fcfcfc"/><stop offset="1" stop-color="#727476"/></linearGradient><linearGradient id="linear-gradient-6" x1="209.55" y1="133.9" x2="332.35" y2="11.1" xlink:href="#linear-gradient-4"/><linearGradient id="linear-gradient-7" x1="226.62" y1="138.37" x2="324.72" y2="40.27" xlink:href="#linear-gradient-5"/><linearGradient id="linear-gradient-8" x1="307.62" y1="133.9" x2="430.42" y2="11.1" xlink:href="#linear-gradient-4"/><linearGradient id="linear-gradient-9" x1="324.69" y1="138.37" x2="422.8" y2="40.27" xlink:href="#linear-gradient-5"/><linearGradient id="linear-gradient-10" x1="405.7" y1="133.9" x2="528.49" y2="11.1" xlink:href="#linear-gradient-4"/><linearGradient id="linear-gradient-11" x1="422.76" y1="138.37" x2="520.87" y2="40.27" xlink:href="#linear-gradient-5"/></defs><title>Ресурс 10</title><g id="Слой_2" data-name="Слой 2"><g id="Layer_1" data-name="Layer 1"><path class="cls-1" d="M27.71,123.1,68.26,68a64.81,64.81,0,0,0,8.6-15.52,44.67,44.67,0,0,0,3-15.56v-.08q0-17.55-10.29-27.18T40.43,0C29.31,0,20.26,3.33,13.17,10A36.54,36.54,0,0,0,5.31,20.79,54,54,0,0,0,0,38.33v.08H20.3v-.08c.78-6.3,3-11.16,6.5-14.53S35,18.69,40.64,18.69q9.07,0,14,4.69A13.76,13.76,0,0,1,57.31,27l0,0a19.7,19.7,0,0,1,2.14,9.55v.21A30,30,0,0,1,57.1,48.05a52.1,52.1,0,0,1-6.54,11.56L1.73,124.7v12.93a4.1,4.1,0,0,0,4.12,4.12H80.69V123.1Z"/><polygon class="cls-2" points="80.69 123.1 80.69 141.75 14 141.75 27.75 123.1 80.69 123.1"/><path class="cls-3" d="M57.31,27a13.76,13.76,0,0,0-2.72-3.63q-4.87-4.68-14-4.69c-5.65,0-10.26,1.69-13.84,5.11S21.08,32,20.3,38.33v.08H0v-.08A54,54,0,0,1,5.31,20.79C22.73,12.23,50.52,9.47,57.31,27Z"/><path class="cls-4" d="M166.82,10.41Q156.88,0,137.29,0T107.76,10.45q-9.95,10.5-10,28.84v63.17c0,11.71,3,21.07,9.24,28a4,4,0,0,0,.61.73q9.83,10.56,29.65,10.54c13,0,22.82-3.46,29.49-10.45s10-16.6,10-28.84V39.29Q176.74,20.87,166.82,10.41Zm-9.6,94.81c-.37,5.17-1.91,9.36-4.6,12.53a15.25,15.25,0,0,1-9.11,5,29.09,29.09,0,0,1-6.22.61c-7.12,0-12.25-1.87-15.38-5.57s-4.72-8.83-4.72-15.29V39.29c0-6.55,1.59-11.63,4.72-15.33s8.26-5.49,15.38-5.49c1.1,0,2.15,0,3.13.12h0a1.2,1.2,0,0,1,.37,0c.53,0,1.09.12,1.62.2a19.09,19.09,0,0,1,6.84,2.36,11.67,11.67,0,0,1,3.05,2.52,1.76,1.76,0,0,1,.28.25c3.17,3.7,4.72,8.78,4.72,15.33v63.17c0,.81,0,1.58-.08,2.36A.66.66,0,0,1,157.22,105.22Z"/><path class="cls-5" d="M176.74,69.06v33.4c0,12.24-3.29,21.88-10,28.84s-16.52,10.45-29.49,10.45q-19.83,0-29.65-10.54a4,4,0,0,1-.61-.73c9-.12,24.89-1.38,36.48-7.77a15.25,15.25,0,0,0,9.11-5c2.69-3.17,4.23-7.36,4.6-12.53a.66.66,0,0,0,0-.4,23,23,0,0,0,.41-4.48c0-4.23-.13-8.46-.33-12.61V39.29c0-6.55-1.55-11.63-4.72-15.33a1.76,1.76,0,0,0-.28-.25,11.67,11.67,0,0,0-3.05-2.52,19.09,19.09,0,0,0-6.84-2.36C160.39,21.19,171.66,29.61,176.74,69.06Z"/><path class="cls-6" d="M302.12,10.41Q292.18,0,272.59,0T243.06,10.45q-9.94,10.5-10,28.84v63.17c0,11.71,3.05,21.07,9.23,28a4,4,0,0,0,.61.73q9.83,10.56,29.65,10.54c13,0,22.82-3.46,29.49-10.45s10-16.6,10-28.84V39.29Q312,20.87,302.12,10.41Zm-9.6,94.81c-.37,5.17-1.91,9.36-4.6,12.53a15.25,15.25,0,0,1-9.11,5,29.09,29.09,0,0,1-6.22.61c-7.12,0-12.24-1.87-15.38-5.57s-4.71-8.83-4.71-15.29V39.29c0-6.55,1.58-11.63,4.71-15.33s8.26-5.49,15.38-5.49c1.1,0,2.16,0,3.13.12h0a1.17,1.17,0,0,1,.37,0c.53,0,1.1.12,1.63.2a19.1,19.1,0,0,1,6.83,2.36,11.5,11.5,0,0,1,3.05,2.52,1.76,1.76,0,0,1,.28.25c3.18,3.7,4.72,8.78,4.72,15.33v63.17c0,.81,0,1.58-.08,2.36A.66.66,0,0,1,292.52,105.22Z"/><path class="cls-7" d="M312,69.06v33.4c0,12.24-3.29,21.88-10,28.84s-16.52,10.45-29.49,10.45q-19.83,0-29.65-10.54a4,4,0,0,1-.61-.73c9-.12,24.89-1.38,36.48-7.77a15.25,15.25,0,0,0,9.11-5c2.69-3.17,4.23-7.36,4.6-12.53a.66.66,0,0,0,0-.4,22.28,22.28,0,0,0,.41-4.48c0-4.23-.12-8.46-.33-12.61V39.29c0-6.55-1.54-11.63-4.72-15.33a1.76,1.76,0,0,0-.28-.25,11.5,11.5,0,0,0-3.05-2.52,19.1,19.1,0,0,0-6.83-2.36C295.69,21.19,307,29.61,312,69.06Z"/><path class="cls-8" d="M400.19,10.41Q390.25,0,370.66,0T341.13,10.45q-9.94,10.5-10,28.84v63.17c0,11.71,3.05,21.07,9.23,28a5,5,0,0,0,.61.73q9.83,10.56,29.65,10.54c13,0,22.82-3.46,29.49-10.45s10-16.6,10-28.84V39.29Q410.12,20.87,400.19,10.41Zm-9.6,94.81c-.36,5.17-1.91,9.36-4.59,12.53a15.31,15.31,0,0,1-9.11,5,29.18,29.18,0,0,1-6.23.61c-7.11,0-12.24-1.87-15.37-5.57s-4.72-8.83-4.72-15.29V39.29c0-6.55,1.59-11.63,4.72-15.33s8.26-5.49,15.37-5.49c1.1,0,2.16,0,3.14.12h0a1.11,1.11,0,0,1,.36,0c.53,0,1.1.12,1.63.2a19.1,19.1,0,0,1,6.83,2.36,11.5,11.5,0,0,1,3,2.52A1.49,1.49,0,0,1,386,24c3.17,3.7,4.72,8.78,4.72,15.33v63.17c0,.81,0,1.58-.09,2.36A.59.59,0,0,1,390.59,105.22Z"/><path class="cls-9" d="M410.12,69.06v33.4c0,12.24-3.3,21.88-10,28.84s-16.51,10.45-29.49,10.45q-19.83,0-29.65-10.54a5,5,0,0,1-.61-.73c9-.12,24.89-1.38,36.49-7.77a15.31,15.31,0,0,0,9.11-5c2.68-3.17,4.23-7.36,4.59-12.53a.59.59,0,0,0,0-.4,22.28,22.28,0,0,0,.41-4.48c0-4.23-.12-8.46-.32-12.61V39.29c0-6.55-1.55-11.63-4.72-15.33a1.49,1.49,0,0,0-.29-.25,11.5,11.5,0,0,0-3-2.52,19.1,19.1,0,0,0-6.83-2.36C393.77,21.19,405,29.61,410.12,69.06Z"/><path class="cls-10" d="M498.27,10.41Q488.33,0,468.74,0T439.21,10.45q-9.94,10.5-10,28.84v63.17c0,11.71,3.05,21.07,9.24,28a4,4,0,0,0,.61.73q9.82,10.56,29.65,10.54c13,0,22.82-3.46,29.49-10.45s10-16.6,10-28.84V39.29Q508.19,20.87,498.27,10.41Zm-9.6,94.81c-.37,5.17-1.91,9.36-4.6,12.53a15.25,15.25,0,0,1-9.11,5,29.09,29.09,0,0,1-6.22.61c-7.12,0-12.24-1.87-15.38-5.57s-4.71-8.83-4.71-15.29V39.29c0-6.55,1.58-11.63,4.71-15.33s8.26-5.49,15.38-5.49c1.1,0,2.15,0,3.13.12h0a1.2,1.2,0,0,1,.37,0c.53,0,1.09.12,1.62.2a19.09,19.09,0,0,1,6.84,2.36,11.67,11.67,0,0,1,3.05,2.52,1.76,1.76,0,0,1,.28.25c3.17,3.7,4.72,8.78,4.72,15.33v63.17c0,.81,0,1.58-.08,2.36A.66.66,0,0,1,488.67,105.22Z"/><path class="cls-11" d="M508.19,69.06v33.4c0,12.24-3.29,21.88-10,28.84s-16.52,10.45-29.49,10.45q-19.83,0-29.65-10.54a4,4,0,0,1-.61-.73c9-.12,24.89-1.38,36.48-7.77a15.25,15.25,0,0,0,9.11-5c2.69-3.17,4.23-7.36,4.6-12.53a.66.66,0,0,0,0-.4,23,23,0,0,0,.41-4.48c0-4.23-.13-8.46-.33-12.61V39.29c0-6.55-1.55-11.63-4.72-15.33a1.76,1.76,0,0,0-.28-.25,11.67,11.67,0,0,0-3.05-2.52,19.09,19.09,0,0,0-6.84-2.36C491.84,21.19,503.11,29.61,508.19,69.06Z"/></g></g></svg>