<svg xmlns="http://www.w3.org/2000/svg" xmlns:xlink="http://www.w3.org/1999/xlink" viewBox="0 0 120.49 114.35"><defs><style>.cls-1{fill:url(#linear-gradient);}.cls-2{fill:url(#linear-gradient-2);}.cls-3{fill:url(#linear-gradient-3);}.cls-4{fill:url(#linear-gradient-4);}</style><linearGradient id="linear-gradient" x1="132.25" y1="22.11" x2="111.12" y2="52.77" gradientUnits="userSpaceOnUse"><stop offset="0" stop-color="#727476"/><stop offset="0.49" stop-color="#fcfcfc"/><stop offset="0.68" stop-color="#fff"/><stop offset="0.75" stop-color="#fff"/><stop offset="0.89" stop-color="#c8caca"/><stop offset="1" stop-color="#9d9fa0"/></linearGradient><linearGradient id="linear-gradient-2" x1="70.75" y1="98.9" x2="167.64" y2="2.01" xlink:href="#linear-gradient"/><linearGradient id="linear-gradient-3" x1="-18.95" y1="107.89" x2="79.87" y2="9.08" gradientUnits="userSpaceOnUse"><stop offset="0" stop-color="#727476"/><stop offset="0.49" stop-color="#fcfcfc"/><stop offset="0.68" stop-color="#fff"/><stop offset="0.75" stop-color="#fff"/></linearGradient><linearGradient id="linear-gradient-4" x1="-5.21" y1="111.49" x2="73.73" y2="32.55" gradientUnits="userSpaceOnUse"><stop offset="0" stop-color="#9d9fa0"/><stop offset="0.11" stop-color="#c8caca"/><stop offset="0.25" stop-color="#fff"/><stop offset="0.32" stop-color="#fff"/><stop offset="0.51" stop-color="#fcfcfc"/><stop offset="1" stop-color="#727476"/></linearGradient></defs><title>Ресурс 8</title><g id="Слой_2" data-name="Слой 2"><g id="Layer_1" data-name="Layer 1"><path class="cls-1" d="M117.13,0H104.45L88.18,10.86V27.44l16.27-10v96.9h16V3.36A3.35,3.35,0,0,0,117.13,0Z"/><path class="cls-2" d="M120.49,3.34v111h-16V0h12.7A3.34,3.34,0,0,1,120.49,3.34Z"/><path class="cls-3" d="M55.54,8.52Q47.55.13,31.78.15T8,8.56Q0,17,0,31.76V82.59c0,9.43,2.45,17,7.43,22.55a3.64,3.64,0,0,0,.49.59q7.9,8.49,23.86,8.48c10.44,0,18.36-2.78,23.73-8.41s8-13.36,8-23.21V31.76Q63.53,16.94,55.54,8.52Zm-7.72,76.3a17.1,17.1,0,0,1-3.7,10.08,12.29,12.29,0,0,1-7.33,4,23.52,23.52,0,0,1-5,.49q-8.59,0-12.37-4.48c-2.52-3-3.8-7.1-3.8-12.31V31.76c0-5.27,1.28-9.36,3.8-12.34S26.05,15,31.78,15c.88,0,1.74,0,2.52.1h0a.78.78,0,0,1,.3,0c.42,0,.88.09,1.31.16a15.31,15.31,0,0,1,5.5,1.9,9.25,9.25,0,0,1,2.45,2,1.55,1.55,0,0,1,.23.19c2.55,3,3.8,7.07,3.8,12.34V82.59c0,.66,0,1.28-.07,1.9A.6.6,0,0,1,47.82,84.82Z"/><path class="cls-4" d="M63.53,55.72V82.59c0,9.85-2.65,17.61-8,23.21s-13.29,8.41-23.73,8.41q-16,0-23.86-8.48a3.64,3.64,0,0,1-.49-.59c7.23-.1,20-1.11,29.36-6.25a12.29,12.29,0,0,0,7.33-4,17.1,17.1,0,0,0,3.7-10.08.6.6,0,0,0,0-.33,18.12,18.12,0,0,0,.33-3.6c0-3.4-.1-6.81-.26-10.15v-39c0-5.27-1.25-9.36-3.8-12.34a1.55,1.55,0,0,0-.23-.19,9.25,9.25,0,0,0-2.45-2,15.31,15.31,0,0,0-5.5-1.9C50.37,17.2,59.44,24,63.53,55.72Z"/></g></g></svg>