<svg xmlns="http://www.w3.org/2000/svg" xmlns:xlink="http://www.w3.org/1999/xlink" viewBox="0 0 143.47 113.64"><defs><style>.cls-1{fill:url(#linear-gradient);}.cls-2{fill:url(#linear-gradient-2);}.cls-3{fill:url(#linear-gradient-3);}.cls-4{fill:url(#linear-gradient-4);}.cls-5{fill:url(#linear-gradient-5);}</style><linearGradient id="linear-gradient" x1="-18.88" y1="107.34" x2="79.57" y2="8.9" gradientUnits="userSpaceOnUse"><stop offset="0" stop-color="#727476"/><stop offset="0.49" stop-color="#fcfcfc"/><stop offset="0.68" stop-color="#fff"/><stop offset="0.75" stop-color="#fff"/></linearGradient><linearGradient id="linear-gradient-2" x1="-5.19" y1="110.93" x2="73.45" y2="32.28" gradientUnits="userSpaceOnUse"><stop offset="0" stop-color="#9d9fa0"/><stop offset="0.11" stop-color="#c8caca"/><stop offset="0.25" stop-color="#fff"/><stop offset="0.32" stop-color="#fff"/><stop offset="0.51" stop-color="#fcfcfc"/><stop offset="1" stop-color="#727476"/></linearGradient><linearGradient id="linear-gradient-3" x1="65.02" y1="111.87" x2="173.03" y2="3.87" gradientUnits="userSpaceOnUse"><stop offset="0" stop-color="#727476"/><stop offset="0.49" stop-color="#fcfcfc"/><stop offset="0.68" stop-color="#fff"/><stop offset="0.75" stop-color="#fff"/><stop offset="0.89" stop-color="#c8caca"/><stop offset="1" stop-color="#9d9fa0"/></linearGradient><linearGradient id="linear-gradient-4" x1="90.74" y1="105.14" x2="169.41" y2="105.14" xlink:href="#linear-gradient-3"/><linearGradient id="linear-gradient-5" x1="113.25" y1="7.97" x2="46.51" y2="89.63" xlink:href="#linear-gradient-3"/></defs><title>Ресурс 7</title><g id="Слой_2" data-name="Слой 2"><g id="Layer_1" data-name="Layer 1"><path class="cls-1" d="M55.33,8.35Q47.37,0,31.66,0T8,8.38Q0,16.8,0,31.5V82.14C0,91.53,2.45,99,7.4,104.6a3.64,3.64,0,0,0,.49.59q7.88,8.46,23.77,8.45,15.6,0,23.64-8.38c5.35-5.58,8-13.31,8-23.12V31.5Q63.29,16.72,55.33,8.35Zm-7.69,76A16.94,16.94,0,0,1,44,94.4a12.25,12.25,0,0,1-7.3,4,23.91,23.91,0,0,1-5,.49c-5.7,0-9.81-1.5-12.32-4.47s-3.79-7.08-3.79-12.26V31.5c0-5.25,1.28-9.33,3.79-12.29S26,14.8,31.66,14.8c.88,0,1.73,0,2.51.1h0a1,1,0,0,1,.3,0c.42,0,.88.1,1.3.17A15.39,15.39,0,0,1,41.28,17a9.06,9.06,0,0,1,2.45,2,1.46,1.46,0,0,1,.22.2c2.55,3,3.79,7,3.79,12.29V82.14c0,.65,0,1.27-.07,1.89A.55.55,0,0,1,47.64,84.35Z"/><path class="cls-2" d="M63.29,55.37V82.14c0,9.81-2.64,17.54-8,23.12s-13.24,8.38-23.64,8.38q-15.9,0-23.77-8.45a3.64,3.64,0,0,1-.49-.59c7.21-.09,20-1.11,29.25-6.22a12.25,12.25,0,0,0,7.3-4,16.94,16.94,0,0,0,3.69-10.05.55.55,0,0,0,0-.32A18,18,0,0,0,48,80.44c0-3.39-.1-6.78-.26-10.11V31.5c0-5.25-1.24-9.33-3.79-12.29a1.46,1.46,0,0,0-.22-.2,9.06,9.06,0,0,0-2.45-2A15.39,15.39,0,0,0,35.8,15.1C50.18,17,59.21,23.74,63.29,55.37Z"/><path class="cls-3" d="M101.4,97.74,133.6,54a52.1,52.1,0,0,0,6.83-12.33,35.53,35.53,0,0,0,2.42-12.35v-.07q0-13.92-8.18-21.57T111.5,0c-8.83,0-16,2.65-21.64,7.94a29,29,0,0,0-6.24,8.57A42.41,42.41,0,0,0,79.4,30.43v.07H95.51v-.07c.63-5,2.36-8.86,5.17-11.54a15.24,15.24,0,0,1,11-4.05q7.22,0,11.08,3.73a10.77,10.77,0,0,1,2.16,2.87l0,0a15.58,15.58,0,0,1,1.7,7.58v.16a23.94,23.94,0,0,1-1.89,8.93,41.82,41.82,0,0,1-5.2,9.18L80.77,99v10.26A3.26,3.26,0,0,0,84,112.54h59.43V97.74Z"/><polygon class="cls-4" points="143.47 97.73 143.47 112.54 90.51 112.54 101.43 97.73 143.47 97.73"/><path class="cls-5" d="M124.9,21.44a10.77,10.77,0,0,0-2.16-2.87q-3.87-3.74-11.08-3.73a15.24,15.24,0,0,0-11,4.05c-2.81,2.68-4.54,6.54-5.17,11.54v.07H79.4v-.07a42.41,42.41,0,0,1,4.22-13.92C97.44,9.71,119.51,7.52,124.9,21.44Z"/></g></g></svg>