<svg xmlns="http://www.w3.org/2000/svg" xmlns:xlink="http://www.w3.org/1999/xlink" viewBox="0 0 144.62 114.17"><defs><style>.cls-1{isolation:isolate;}.cls-2{fill:url(#linear-gradient);}.cls-3{fill:url(#linear-gradient-2);}.cls-4{fill:url(#linear-gradient-3);}.cls-5{fill:url(#linear-gradient-4);}.cls-6{fill:url(#linear-gradient-5);}.cls-7{fill:url(#linear-gradient-6);}.cls-8{fill:url(#linear-gradient-7);}.cls-9{opacity:0.39;mix-blend-mode:multiply;}.cls-10{fill:#231f20;}</style><linearGradient id="linear-gradient" x1="-18.88" y1="107.34" x2="79.57" y2="8.9" gradientUnits="userSpaceOnUse"><stop offset="0" stop-color="#727476"/><stop offset="0.49" stop-color="#fcfcfc"/><stop offset="0.68" stop-color="#fff"/><stop offset="0.75" stop-color="#fff"/></linearGradient><linearGradient id="linear-gradient-2" x1="-5.19" y1="110.93" x2="73.45" y2="32.28" gradientUnits="userSpaceOnUse"><stop offset="0" stop-color="#9d9fa0"/><stop offset="0.11" stop-color="#c8caca"/><stop offset="0.25" stop-color="#fff"/><stop offset="0.32" stop-color="#fff"/><stop offset="0.51" stop-color="#fcfcfc"/><stop offset="1" stop-color="#727476"/></linearGradient><linearGradient id="linear-gradient-3" x1="63.95" y1="106.65" x2="158.71" y2="11.89" xlink:href="#linear-gradient"/><linearGradient id="linear-gradient-4" x1="112.48" y1="6.31" x2="79.42" y2="62.98" gradientUnits="userSpaceOnUse"><stop offset="0" stop-color="#727476"/><stop offset="0.49" stop-color="#fcfcfc"/><stop offset="0.68" stop-color="#fff"/><stop offset="0.75" stop-color="#fff"/><stop offset="0.89" stop-color="#c8caca"/><stop offset="1" stop-color="#9d9fa0"/></linearGradient><linearGradient id="linear-gradient-5" x1="88.16" y1="79.39" x2="114.32" y2="107" xlink:href="#linear-gradient-2"/><linearGradient id="linear-gradient-6" x1="126.3" y1="56" x2="127.51" y2="54.78" xlink:href="#linear-gradient-4"/><linearGradient id="linear-gradient-7" x1="118.33" y1="52.69" x2="148.42" y2="111.86" xlink:href="#linear-gradient-4"/></defs><title>Ресурс 6</title><g class="cls-1"><g id="Слой_2" data-name="Слой 2"><g id="Layer_1" data-name="Layer 1"><path class="cls-2" d="M55.33,8.35Q47.37,0,31.66,0T8,8.38Q0,16.8,0,31.5V82.14C0,91.53,2.45,99,7.4,104.6a3.64,3.64,0,0,0,.49.59q7.88,8.46,23.77,8.45,15.6,0,23.64-8.38c5.35-5.58,8-13.31,8-23.12V31.5Q63.29,16.72,55.33,8.35Zm-7.69,76A16.94,16.94,0,0,1,44,94.4a12.25,12.25,0,0,1-7.3,4,23.94,23.94,0,0,1-5,.48c-5.7,0-9.81-1.5-12.32-4.46s-3.79-7.08-3.79-12.26V31.5c0-5.25,1.28-9.33,3.79-12.29S26,14.8,31.66,14.8c.88,0,1.73,0,2.51.1h0a1,1,0,0,1,.3,0c.42,0,.88.1,1.3.17A15.39,15.39,0,0,1,41.28,17a9.06,9.06,0,0,1,2.45,2,1.46,1.46,0,0,1,.22.2c2.55,3,3.79,7,3.79,12.29V82.14c0,.65,0,1.27-.07,1.89A.55.55,0,0,1,47.64,84.35Z"/><path class="cls-3" d="M63.29,55.37V82.14c0,9.81-2.64,17.54-8,23.12s-13.24,8.38-23.64,8.38q-15.9,0-23.77-8.45a3.64,3.64,0,0,1-.49-.59c7.21-.09,20-1.11,29.25-6.22a12.25,12.25,0,0,0,7.3-4,16.94,16.94,0,0,0,3.69-10.05.55.55,0,0,0,0-.32A18,18,0,0,0,48,80.44c0-3.39-.1-6.78-.26-10.11V31.5c0-5.25-1.24-9.33-3.79-12.29a1.46,1.46,0,0,0-.22-.2,9.06,9.06,0,0,0-2.45-2A15.39,15.39,0,0,0,35.8,15.1C50.18,17,59.21,23.74,63.29,55.37Z"/><path class="cls-4" d="M139.61,63.06a21.62,21.62,0,0,0-10.91-7.57h0a22,22,0,0,0-2.95-.78,1.21,1.21,0,0,1-.23-.07,25.85,25.85,0,0,0,12.77-8.48,21,21,0,0,0,4.46-12v0a11.71,11.71,0,0,0,.07-1.57V29c0-9.21-2.63-16.32-7.93-21.39S122.15,0,112.61,0c-8.45,0-15.39,2.39-20.9,7.17a29.22,29.22,0,0,0-7,9.14,40.42,40.42,0,0,0-3.57,11v.07H97v-.07a16.48,16.48,0,0,1,5.63-9.1,15.67,15.67,0,0,1,10-3.25c4.66,0,8.23,1.22,10.75,3.61a11.23,11.23,0,0,1,2.1,2.72,15.14,15.14,0,0,1,1.7,7.47v3.7A24.71,24.71,0,0,1,126.9,36a13.82,13.82,0,0,1-3.31,7.51A13.89,13.89,0,0,1,122,45c-2.2,1.67-16.33,5-16.33,5a.15.15,0,0,0-.15.15V59a3.14,3.14,0,0,0,.16,1,3.25,3.25,0,0,0,3.11,2.3h4.62c.36,0,.72,0,1,0,4.49.2,8,1.7,10.45,4.52s3.77,6.42,4,11.17a16.57,16.57,0,0,1,.06,1.74v3.6c0,4.52-1.14,8.09-3.5,10.81a5.73,5.73,0,0,1-.79.85c-2.85,2.76-6.88,4.13-12,4.13q-7.23,0-11.79-3.41a14.39,14.39,0,0,1-5.67-9.69V86h-16v.07A35.44,35.44,0,0,0,83.33,98.9a27.12,27.12,0,0,0,6.48,7.93q8.75,7.36,22.87,7.34,15.24,0,23.59-8a20.88,20.88,0,0,0,2.81-3.31c3.71-5,5.54-11.5,5.54-19.39V79.83Q144.62,69.66,139.61,63.06Z"/><path class="cls-5" d="M125.59,21.49a.24.24,0,0,0-.13-.16,11.23,11.23,0,0,0-2.1-2.72c-2.52-2.39-6.09-3.61-10.75-3.61a15.67,15.67,0,0,0-10,3.25A16.48,16.48,0,0,0,97,27.35v.07H81.1v-.07a40.42,40.42,0,0,1,3.57-11C98.53,9.7,120.25,7.7,125.59,21.49Z"/><path class="cls-6" d="M125.49,94.18C119,108,97.38,104.89,83.33,98.9a35.44,35.44,0,0,1-4.06-12.84V86h16v.07a14.39,14.39,0,0,0,5.67,9.69q4.56,3.41,11.79,3.41c5.14,0,9.17-1.37,12-4.13A5.73,5.73,0,0,0,125.49,94.18Z"/><path class="cls-7" d="M125.72,54.71a22,22,0,0,1,2.95.78A27.42,27.42,0,0,1,125.72,54.71Z"/><path class="cls-8" d="M144.62,79.83v3.61c0,7.89-1.83,14.38-5.54,19.39-.26-7-2.22-17-10.15-24.8-.23-4.75-1.57-8.45-4-11.17s-6-4.32-10.45-4.52c-.33,0-.69,0-1,0h-4.62A3.25,3.25,0,0,1,105.7,60a73.59,73.59,0,0,0,20-5.3,22,22,0,0,1,2.95.78h0a21.62,21.62,0,0,1,10.91,7.57Q144.62,69.65,144.62,79.83Z"/><g class="cls-9"><path class="cls-10" d="M55.33,8.35Q47.37,0,31.66,0T8,8.38Q0,16.8,0,31.5V82.14C0,91.53,2.45,99,7.4,104.6a3.64,3.64,0,0,0,.49.59q7.88,8.46,23.77,8.45,15.6,0,23.64-8.38c5.35-5.58,8-13.31,8-23.12V31.5Q63.29,16.72,55.33,8.35Zm-7.69,76A16.94,16.94,0,0,1,44,94.4a12.25,12.25,0,0,1-7.3,4,23.94,23.94,0,0,1-5,.48c-5.7,0-9.81-1.5-12.32-4.46s-3.79-7.08-3.79-12.26V31.5c0-5.25,1.28-9.33,3.79-12.29S26,14.8,31.66,14.8c.88,0,1.73,0,2.51.1h0a1,1,0,0,1,.3,0c.42,0,.88.1,1.3.17A15.39,15.39,0,0,1,41.28,17a9.06,9.06,0,0,1,2.45,2,1.46,1.46,0,0,1,.22.2c2.55,3,3.79,7,3.79,12.29V82.14c0,.65,0,1.27-.07,1.89A.55.55,0,0,1,47.64,84.35Z"/><path class="cls-10" d="M63.29,55.37V82.14c0,9.81-2.64,17.54-8,23.12s-13.24,8.38-23.64,8.38q-15.9,0-23.77-8.45a3.64,3.64,0,0,1-.49-.59c7.21-.09,20-1.11,29.25-6.22a12.25,12.25,0,0,0,7.3-4,16.94,16.94,0,0,0,3.69-10.05.55.55,0,0,0,0-.32A18,18,0,0,0,48,80.44c0-3.39-.1-6.78-.26-10.11V31.5c0-5.25-1.24-9.33-3.79-12.29a1.46,1.46,0,0,0-.22-.2,9.06,9.06,0,0,0-2.45-2A15.39,15.39,0,0,0,35.8,15.1C50.18,17,59.21,23.74,63.29,55.37Z"/><path class="cls-10" d="M139.61,63.06a21.62,21.62,0,0,0-10.91-7.57h0a22,22,0,0,0-2.95-.78,1.21,1.21,0,0,1-.23-.07,25.85,25.85,0,0,0,12.77-8.48,21,21,0,0,0,4.46-12v0a11.71,11.71,0,0,0,.07-1.57V29c0-9.21-2.63-16.32-7.93-21.39S122.15,0,112.61,0c-8.45,0-15.39,2.39-20.9,7.17a29.22,29.22,0,0,0-7,9.14,40.42,40.42,0,0,0-3.57,11v.07H97v-.07a16.48,16.48,0,0,1,5.63-9.1,15.67,15.67,0,0,1,10-3.25c4.66,0,8.23,1.22,10.75,3.61a11.23,11.23,0,0,1,2.1,2.72,15.14,15.14,0,0,1,1.7,7.47v3.7A24.71,24.71,0,0,1,126.9,36a13.82,13.82,0,0,1-3.31,7.51A13.89,13.89,0,0,1,122,45c-2.2,1.67-16.33,5-16.33,5a.15.15,0,0,0-.15.15V59a3.14,3.14,0,0,0,.16,1,3.25,3.25,0,0,0,3.11,2.3h4.62c.36,0,.72,0,1,0,4.49.2,8,1.7,10.45,4.52s3.77,6.42,4,11.17a16.57,16.57,0,0,1,.06,1.74v3.6c0,4.52-1.14,8.09-3.5,10.81a5.73,5.73,0,0,1-.79.85c-2.85,2.76-6.88,4.13-12,4.13q-7.23,0-11.79-3.41a14.39,14.39,0,0,1-5.67-9.69V86h-16v.07A35.44,35.44,0,0,0,83.33,98.9a27.12,27.12,0,0,0,6.48,7.93q8.75,7.36,22.87,7.34,15.24,0,23.59-8a20.88,20.88,0,0,0,2.81-3.31c3.71-5,5.54-11.5,5.54-19.39V79.83Q144.62,69.66,139.61,63.06Z"/><path class="cls-10" d="M125.59,21.49a.24.24,0,0,0-.13-.16,11.23,11.23,0,0,0-2.1-2.72c-2.52-2.39-6.09-3.61-10.75-3.61a15.67,15.67,0,0,0-10,3.25A16.48,16.48,0,0,0,97,27.35v.07H81.1v-.07a40.42,40.42,0,0,1,3.57-11C98.53,9.7,120.25,7.7,125.59,21.49Z"/><path class="cls-10" d="M125.49,94.18C119,108,97.38,104.89,83.33,98.9a35.44,35.44,0,0,1-4.06-12.84V86h16v.07a14.39,14.39,0,0,0,5.67,9.69q4.56,3.41,11.79,3.41c5.14,0,9.17-1.37,12-4.13A5.73,5.73,0,0,0,125.49,94.18Z"/><path class="cls-10" d="M125.72,54.71a22,22,0,0,1,2.95.78A27.42,27.42,0,0,1,125.72,54.71Z"/><path class="cls-10" d="M144.62,79.83v3.61c0,7.89-1.83,14.38-5.54,19.39-.26-7-2.22-17-10.15-24.8-.23-4.75-1.57-8.45-4-11.17s-6-4.32-10.45-4.52c-.33,0-.69,0-1,0h-4.62A3.25,3.25,0,0,1,105.7,60a73.59,73.59,0,0,0,20-5.3,22,22,0,0,1,2.95.78h0a21.62,21.62,0,0,1,10.91,7.57Q144.62,69.65,144.62,79.83Z"/></g></g></g></g></svg>