<svg xmlns="http://www.w3.org/2000/svg" viewBox="0 0 50.57 46"><defs><style>.cls-1{fill:#fff;fill-rule:evenodd;}.cls-2{fill:none;stroke:#fff;stroke-width:2px;}.cls-3{fill:#ec297b;}</style></defs><title>Ресурс 4</title><g id="Слой_2" data-name="Слой 2"><g id="Layer_1" data-name="Layer 1"><path class="cls-1" d="M50.57,5.5H0V34.75A11.25,11.25,0,0,0,11.25,46H39.32A11.25,11.25,0,0,0,50.57,34.75ZM21.85,24.29a1.12,1.12,0,0,0-1.62,1V36.4a1.13,1.13,0,0,0,1.58,1l11.94-5.29a1.13,1.13,0,0,0,0-2Z"/><path class="cls-2" d="M32.59,7.75A6.74,6.74,0,1,1,25.85,1,6.75,6.75,0,0,1,32.59,7.75Z"/><path class="cls-3" d="M3.37,7.75H47.2L45,13.38,47.2,19H3.37l2.25-5.62Z"/><path class="cls-2" d="M32.59,20.13c0,1-.2,1.3-.3,1.4s-.29.22-.89.23a17,17,0,0,1-2.13-.21l-.2,0a23.5,23.5,0,0,0-3.22-.27,23.21,23.21,0,0,0-3.21.27l-.21,0a17,17,0,0,1-2.13.21c-.6,0-.8-.14-.89-.23s-.3-.43-.3-1.4a6.74,6.74,0,1,1,13.48,0Z"/></g></g></svg>